<svg width="66" height="66" viewBox="0 0 66 66" fill="none" xmlns="http://www.w3.org/2000/svg">
<rect x="5" y="5" width="56" height="56" rx="28" fill="#F5F5FF"/>
<rect x="5" y="5" width="56" height="56" rx="28" stroke="#F5F5FF" stroke-width="10"/>
<path d="M37.0832 27.7497L41.1665 23.6663M43.4998 21.333L41.1665 23.6663L43.4998 21.333ZM32.2882 32.5447C32.8906 33.1391 33.3694 33.8467 33.6972 34.6269C34.025 35.4071 34.1952 36.2445 34.198 37.0907C34.2009 37.937 34.0363 38.7755 33.7137 39.5579C33.3912 40.3402 32.9171 41.0511 32.3187 41.6495C31.7203 42.2479 31.0094 42.722 30.227 43.0446C29.4446 43.3671 28.6062 43.5317 27.7599 43.5289C26.9136 43.526 26.0763 43.3558 25.2961 43.0281C24.5159 42.7003 23.8082 42.2214 23.2138 41.619C22.045 40.4088 21.3982 38.7879 21.4128 37.1055C21.4275 35.4231 22.1023 33.8137 23.292 32.624C24.4817 31.4343 26.0911 30.7595 27.7735 30.7448C29.4559 30.7302 31.0768 31.377 32.287 32.5458L32.2882 32.5447ZM32.2882 32.5447L37.0832 27.7497L32.2882 32.5447ZM37.0832 27.7497L40.5832 31.2497L44.6665 27.1663L41.1665 23.6663L37.0832 27.7497Z" stroke="#001F3F" stroke-width="2.33333" stroke-linecap="round" stroke-linejoin="round"/>
</svg>
