<svg width="720" height="960" viewBox="0 0 720 960" fill="none" xmlns="http://www.w3.org/2000/svg">
<rect width="720" height="960" fill="#001F3F"/>
<path d="M304.448 294.572L352.72 297.634C353.934 297.711 354.968 296.789 355.03 295.574L356.208 272.656L316.726 270.151C310.657 269.766 305.485 274.377 305.172 280.45L304.448 294.572Z" fill="#00E8A2" fill-opacity="0.16"/>
<path d="M381.49 327.685L303.512 322.738L304.675 300.103L382.652 305.05L381.49 327.685Z" stroke="#00E8A2" stroke-opacity="0.16" stroke-width="1.02178"/>
<path d="M381.713 333.303L333.441 330.241C332.227 330.164 331.193 331.086 331.13 332.301L329.953 355.22L369.435 357.725C375.503 358.11 380.676 353.498 380.988 347.425L381.713 333.303Z" fill="#00E8A2" fill-opacity="0.16"/>
<path d="M192.39 319.415L240.663 322.477C241.876 322.555 242.911 321.632 242.973 320.417L244.15 297.499L204.669 294.994C198.6 294.609 193.427 299.22 193.115 305.294L192.39 319.415Z" fill="#00E8A2" fill-opacity="0.16"/>
<path d="M269.432 352.529L191.455 347.582L192.617 324.946L270.594 329.893L269.432 352.529Z" stroke="#00E8A2" stroke-opacity="0.16" stroke-width="1.02178"/>
<path d="M269.12 358.625L221.357 355.594C220.425 355.535 219.63 356.243 219.582 357.176L218.431 379.585L257.403 382.058C263.19 382.425 268.123 378.027 268.421 372.236L269.12 358.625Z" stroke="#00E8A2" stroke-opacity="0.16" stroke-width="1.02178"/>
<path d="M221.646 261.825L269.919 264.888C271.133 264.965 272.167 264.043 272.229 262.828L273.407 239.909L233.925 237.404C227.856 237.019 222.683 241.631 222.371 247.704L221.646 261.825Z" fill="#00E8A2" fill-opacity="0.56"/>
<path d="M298.688 294.94L220.711 289.992L221.873 267.357L299.851 272.304L298.688 294.94Z" stroke="#00E8A2" stroke-opacity="0.16" stroke-width="1.02178"/>
<path d="M298.912 300.557L250.639 297.494C249.426 297.417 248.391 298.34 248.328 299.554L247.152 322.473L286.633 324.978C292.702 325.363 297.875 320.752 298.187 314.679L298.912 300.557Z" fill="#00E8A2" fill-opacity="0.16"/>
<path d="M216.248 468.157L264.011 471.187C264.944 471.246 265.738 470.537 265.786 469.605L266.937 447.196L227.966 444.723C222.178 444.356 217.245 448.754 216.948 454.545L216.248 468.157Z" stroke="#00E8A2" stroke-opacity="0.16" stroke-width="1.02178"/>
<path d="M293.238 502.291L214.241 497.279L215.456 473.623L294.453 478.635L293.238 502.291Z" fill="#00E8A2" fill-opacity="0.16"/>
<path d="M292.443 507.844L244.68 504.814C243.747 504.755 242.953 505.463 242.905 506.395L241.754 528.804L280.725 531.277C286.513 531.644 291.446 527.246 291.743 521.455L292.443 507.844Z" stroke="#00E8A2" stroke-opacity="0.16" stroke-width="1.02178"/>
<path d="M273.415 352.65L321.688 355.713C322.902 355.79 323.936 354.868 323.999 353.653L325.176 330.734L285.694 328.229C279.626 327.844 274.452 332.456 274.141 338.529L273.415 352.65Z" fill="#00E8A2" fill-opacity="0.16"/>
<path d="M350.458 385.764L272.48 380.817L273.643 358.182L351.62 363.129L350.458 385.764Z" stroke="#00E8A2" stroke-opacity="0.16" stroke-width="1.02178"/>
<path d="M350.145 391.859L302.382 388.829C301.45 388.77 300.656 389.479 300.608 390.412L299.457 412.82L338.429 415.293C344.216 415.66 349.149 411.262 349.446 405.471L350.145 391.859Z" stroke="#00E8A2" stroke-opacity="0.16" stroke-width="1.02178"/>
<path d="M244.159 410.239L292.432 413.302C293.645 413.379 294.68 412.456 294.743 411.242L295.919 388.323L256.438 385.818C250.369 385.433 245.196 390.044 244.884 396.118L244.159 410.239Z" fill="#00E8A2" fill-opacity="0.16"/>
<path d="M321.201 443.353L243.224 438.406L244.386 415.771L322.364 420.718L321.201 443.353Z" stroke="#00E8A2" stroke-opacity="0.16" stroke-width="1.02178"/>
<path d="M321.425 448.971L273.153 445.908C271.939 445.831 270.904 446.754 270.842 447.968L269.665 470.887L309.146 473.392C315.215 473.777 320.388 469.165 320.7 463.093L321.425 448.971Z" fill="#00E8A2" fill-opacity="0.16"/>
<path d="M110.88 286.019L159.152 289.082C160.366 289.159 161.401 288.237 161.463 287.022L162.64 264.103L123.159 261.598C117.09 261.213 111.917 265.825 111.605 271.898L110.88 286.019Z" fill="#00E8A2" fill-opacity="0.16"/>
<path d="M187.922 319.133L109.945 314.186L111.107 291.551L189.084 296.498L187.922 319.133Z" stroke="#00E8A2" stroke-opacity="0.16" stroke-width="1.02178"/>
<path d="M188.146 324.751L139.873 321.689C138.659 321.611 137.625 322.534 137.562 323.748L136.385 346.667L175.867 349.172C181.936 349.557 187.109 344.946 187.421 338.872L188.146 324.751Z" fill="#00E8A2" fill-opacity="0.16"/>
<path d="M133.932 435.57L181.695 438.601C182.627 438.66 183.422 437.951 183.47 437.019L184.62 414.61L145.649 412.137C139.862 411.771 134.929 416.168 134.631 421.959L133.932 435.57Z" stroke="#00E8A2" stroke-opacity="0.16" stroke-width="1.02178"/>
<path d="M210.922 469.705L131.925 464.693L133.14 441.037L212.137 446.049L210.922 469.705Z" fill="#00E8A2" fill-opacity="0.16"/>
<path d="M210.126 475.258L162.364 472.227C161.431 472.169 160.637 472.877 160.589 473.809L159.438 496.218L198.409 498.691C204.197 499.058 209.13 494.66 209.427 488.869L210.126 475.258Z" stroke="#00E8A2" stroke-opacity="0.16" stroke-width="1.02178"/>
<path d="M161.843 377.653L210.116 380.716C211.329 380.793 212.364 379.871 212.427 378.656L213.603 355.737L174.122 353.232C168.053 352.847 162.88 357.459 162.568 363.532L161.843 377.653Z" fill="#00E8A2" fill-opacity="0.16"/>
<path d="M238.885 410.767L160.907 405.82L162.07 383.184L240.047 388.132L238.885 410.767Z" stroke="#00E8A2" stroke-opacity="0.16" stroke-width="1.02178"/>
<path d="M239.109 416.385L190.836 413.323C189.622 413.245 188.588 414.168 188.525 415.383L187.348 438.301L226.83 440.806C232.899 441.191 238.072 436.58 238.384 430.506L239.109 416.385Z" fill="#00E8A2" fill-opacity="0.16"/>
<path d="M179.184 525.435L227.457 528.497C228.671 528.574 229.705 527.652 229.768 526.437L230.945 503.518L191.463 501.013C185.394 500.629 180.221 505.24 179.91 511.313L179.184 525.435Z" fill="#00E8A2" fill-opacity="0.16"/>
<path d="M256.226 558.549L178.249 553.601L179.411 530.966L257.388 535.913L256.226 558.549Z" stroke="#00E8A2" stroke-opacity="0.16" stroke-width="1.02178"/>
<path d="M256.45 564.166L208.177 561.104C206.963 561.027 205.929 561.949 205.867 563.164L204.689 586.082L244.171 588.587C250.24 588.972 255.413 584.361 255.725 578.288L256.45 564.166Z" fill="#00E8A2" fill-opacity="0.16"/>
<path d="M410.202 477.981L458.474 481.043C459.688 481.12 460.723 480.198 460.785 478.983L461.962 456.064L422.481 453.56C416.412 453.174 411.238 457.786 410.927 463.859L410.202 477.981Z" fill="#00E8A2" fill-opacity="0.16"/>
<path d="M487.467 516.712L439.195 513.65C437.981 513.572 436.947 514.495 436.884 515.709L435.707 538.628L475.188 541.133C481.258 541.518 486.43 536.907 486.742 530.833L487.467 516.712Z" fill="#00E8A2" fill-opacity="0.16"/>
<path d="M298.68 502.346L346.443 505.376C347.375 505.435 348.17 504.727 348.217 503.794L349.368 481.385L310.397 478.913C304.61 478.546 299.676 482.943 299.379 488.735L298.68 502.346Z" stroke="#00E8A2" stroke-opacity="0.16" stroke-width="1.02178"/>
<path d="M375.186 535.938L297.209 530.991L298.371 508.355L376.349 513.302L375.186 535.938Z" stroke="#00E8A2" stroke-opacity="0.16" stroke-width="1.02178"/>
<path d="M374.874 542.034L327.111 539.003C326.179 538.944 325.384 539.652 325.337 540.585L324.186 562.994L363.157 565.466C368.944 565.834 373.878 561.436 374.175 555.645L374.874 542.034Z" stroke="#00E8A2" stroke-opacity="0.16" stroke-width="1.02178"/>
<path d="M327.4 445.234L375.673 448.297C376.887 448.374 377.921 447.451 377.984 446.237L379.161 423.318L339.679 420.813C333.61 420.428 328.437 425.039 328.126 431.113L327.4 445.234Z" fill="#00E8A2" fill-opacity="0.16"/>
<path d="M404.442 478.348L326.465 473.401L327.627 450.766L405.605 455.713L404.442 478.348Z" stroke="#00E8A2" stroke-opacity="0.16" stroke-width="1.02178"/>
<path d="M404.666 483.966L356.394 480.903C355.18 480.826 354.145 481.749 354.083 482.963L352.906 505.882L392.387 508.387C398.457 508.772 403.629 504.161 403.941 498.087L404.666 483.966Z" fill="#00E8A2" fill-opacity="0.16"/>
<path d="M322.003 651.565L369.766 654.595C370.698 654.654 371.492 653.946 371.54 653.013L372.691 630.604L333.72 628.132C327.932 627.765 322.999 632.162 322.702 637.954L322.003 651.565Z" stroke="#00E8A2" stroke-opacity="0.16" stroke-width="1.02178"/>
<path d="M398.993 685.699L319.995 680.687L321.21 657.031L400.207 662.043L398.993 685.699Z" fill="#00E8A2" fill-opacity="0.16"/>
<path d="M398.197 691.252L350.434 688.223C349.502 688.161 348.707 688.871 348.659 689.806L347.509 712.214L386.48 714.687C392.268 715.055 397.2 710.656 397.498 704.862L398.197 691.252Z" stroke="#00E8A2" stroke-opacity="0.16" stroke-width="1.02178"/>
<path d="M379.169 536.059L427.442 539.122C428.656 539.199 429.691 538.276 429.753 537.062L430.93 514.143L391.449 511.638C385.379 511.253 380.207 515.864 379.895 521.938L379.169 536.059Z" fill="#00E8A2" fill-opacity="0.56"/>
<path d="M456.212 569.173L378.234 564.226L379.397 541.59L457.374 546.537L456.212 569.173Z" stroke="#00E8A2" stroke-opacity="0.16" stroke-width="1.02178"/>
<path d="M455.9 575.268L408.137 572.238C407.204 572.179 406.41 572.888 406.362 573.82L405.211 596.229L444.183 598.702C449.97 599.068 454.903 594.671 455.201 588.88L455.9 575.268Z" stroke="#00E8A2" stroke-opacity="0.16" stroke-width="1.02178"/>
<path d="M349.914 593.648L398.186 596.711C399.4 596.787 400.434 595.865 400.497 594.651L401.674 571.732L362.192 569.227C356.123 568.842 350.951 573.453 350.639 579.526L349.914 593.648Z" fill="#00E8A2" fill-opacity="0.16"/>
<path d="M427.439 627.305L348.442 622.293L349.657 598.637L428.654 603.649L427.439 627.305Z" fill="#00E8A2" fill-opacity="0.16"/>
<path d="M427.179 632.38L378.907 629.317C377.693 629.24 376.658 630.163 376.596 631.377L375.419 654.296L414.9 656.801C420.969 657.186 426.142 652.574 426.454 646.501L427.179 632.38Z" fill="#00E8A2" fill-opacity="0.16"/>
<path d="M293.676 502.542L215.699 497.595L216.861 474.959L294.839 479.906L293.676 502.542Z" stroke="#00E8A2" stroke-opacity="0.16" stroke-width="1.02178"/>
<path d="M293.9 508.16L245.627 505.097C244.414 505.02 243.379 505.942 243.317 507.157L242.14 530.076L281.621 532.58C287.69 532.966 292.863 528.354 293.175 522.281L293.9 508.16Z" fill="#00E8A2" fill-opacity="0.16"/>
<path d="M239.686 618.979L287.449 622.009C288.382 622.068 289.176 621.36 289.224 620.427L290.375 598.019L251.403 595.546C245.616 595.179 240.683 599.576 240.385 605.368L239.686 618.979Z" stroke="#00E8A2" stroke-opacity="0.16" stroke-width="1.02178"/>
<path d="M316.676 653.113L237.679 648.102L238.894 624.446L317.891 629.457L316.676 653.113Z" fill="#00E8A2" fill-opacity="0.16"/>
<path d="M315.88 658.667L268.118 655.636C267.185 655.577 266.391 656.286 266.343 657.218L265.192 679.627L304.163 682.1C309.951 682.467 314.884 678.069 315.181 672.278L315.88 658.667Z" stroke="#00E8A2" stroke-opacity="0.16" stroke-width="1.02178"/>
<path d="M267.597 561.062L315.869 564.125C317.083 564.202 318.118 563.279 318.18 562.065L319.357 539.146L279.876 536.641C273.807 536.256 268.634 540.867 268.322 546.941L267.597 561.062Z" fill="#00E8A2" fill-opacity="0.16"/>
<path d="M344.639 594.176L266.662 589.229L267.824 566.593L345.802 571.54L344.639 594.176Z" stroke="#00E8A2" stroke-opacity="0.16" stroke-width="1.02178"/>
<path d="M344.863 599.794L296.591 596.731C295.377 596.654 294.342 597.576 294.28 598.791L293.103 621.71L332.584 624.215C338.653 624.6 343.826 619.988 344.138 613.915L344.863 599.794Z" fill="#00E8A2" fill-opacity="0.16"/>
<path d="M284.938 708.842L333.211 711.907C334.425 711.984 335.459 711.059 335.522 709.848L336.699 686.925L297.217 684.422C291.148 684.037 285.975 688.647 285.663 694.721L284.938 708.842Z" fill="#00E8A2" fill-opacity="0.16"/>
<path d="M361.98 741.96L284.003 737.013L285.165 714.377L363.143 719.324L361.98 741.96Z" stroke="#00E8A2" stroke-opacity="0.16" stroke-width="1.02178"/>
<path d="M362.204 747.578L313.932 744.512C312.718 744.436 311.683 745.355 311.621 746.571L310.444 769.49L349.925 771.998C355.995 772.381 361.167 767.768 361.479 761.699L362.204 747.578Z" fill="#00E8A2" fill-opacity="0.16"/>
<path d="M532.304 245.016L580.576 248.078C581.79 248.155 582.825 247.233 582.887 246.018L584.064 223.099L544.583 220.594C538.514 220.209 533.341 224.821 533.029 230.894L532.304 245.016Z" fill="#00E8A2" fill-opacity="0.16"/>
<path d="M609.346 278.129L531.369 273.182L532.531 250.547L610.508 255.494L609.346 278.129Z" stroke="#00E8A2" stroke-opacity="0.16" stroke-width="1.02178"/>
<path d="M609.569 283.747L561.297 280.685C560.084 280.608 559.049 281.53 558.987 282.745L557.81 305.664L597.291 308.169C603.362 308.553 608.532 303.942 608.844 297.869L609.569 283.747Z" fill="#00E8A2" fill-opacity="0.16"/>
<path d="M420.246 269.859L468.519 272.921C469.732 272.998 470.767 272.076 470.829 270.861L472.006 247.943L432.525 245.438C426.456 245.053 421.283 249.664 420.971 255.738L420.246 269.859Z" fill="#00E8A2" fill-opacity="0.16"/>
<path d="M497.288 302.973L419.311 298.026L420.473 275.39L498.45 280.337L497.288 302.973Z" stroke="#00E8A2" stroke-opacity="0.16" stroke-width="1.02178"/>
<path d="M496.976 309.069L449.213 306.038C448.281 305.979 447.486 306.688 447.438 307.62L446.287 330.029L485.259 332.502C491.046 332.869 495.979 328.471 496.277 322.68L496.976 309.069Z" stroke="#00E8A2" stroke-opacity="0.16" stroke-width="1.02178"/>
<path d="M449.502 212.269L497.775 215.332C498.989 215.409 500.023 214.487 500.085 213.272L501.263 190.353L461.781 187.848C455.712 187.463 450.539 192.075 450.227 198.148L449.502 212.269Z" fill="#00E8A2" fill-opacity="0.16"/>
<path d="M526.544 245.383L448.566 240.436L449.729 217.801L527.706 222.748L526.544 245.383Z" stroke="#00E8A2" stroke-opacity="0.16" stroke-width="1.02178"/>
<path d="M526.768 251.001L478.495 247.938C477.282 247.861 476.247 248.784 476.184 249.998L475.008 272.917L514.489 275.422C520.558 275.807 525.731 271.196 526.043 265.123L526.768 251.001Z" fill="#00E8A2" fill-opacity="0.16"/>
<path d="M444.104 418.601L491.867 421.631C492.8 421.69 493.594 420.981 493.642 420.048L494.792 397.64L455.821 395.167C450.034 394.8 445.101 399.198 444.804 404.989L444.104 418.601Z" stroke="#00E8A2" stroke-opacity="0.16" stroke-width="1.02178"/>
<path d="M521.094 452.734L442.097 447.723L443.312 424.067L522.309 429.079L521.094 452.734Z" fill="#00E8A2" fill-opacity="0.16"/>
<path d="M520.299 458.288L472.536 455.258C471.603 455.199 470.809 455.907 470.761 456.84L469.61 479.248L508.581 481.721C514.369 482.088 519.302 477.69 519.599 471.899L520.299 458.288Z" stroke="#00E8A2" stroke-opacity="0.16" stroke-width="1.02178"/>
<path d="M501.272 303.094L549.544 306.157C550.758 306.234 551.793 305.312 551.855 304.097L553.032 281.178L513.551 278.673C507.482 278.288 502.309 282.9 501.997 288.973L501.272 303.094Z" fill="#00E8A2" fill-opacity="0.16"/>
<path d="M578.314 336.208L500.336 331.261L501.499 308.626L579.476 313.573L578.314 336.208Z" stroke="#00E8A2" stroke-opacity="0.16" stroke-width="1.02178"/>
<path d="M578.002 342.303L530.239 339.273C529.307 339.214 528.512 339.923 528.465 340.856L527.313 363.264L566.285 365.737C572.072 366.104 577.006 361.706 577.303 355.915L578.002 342.303Z" stroke="#00E8A2" stroke-opacity="0.16" stroke-width="1.02178"/>
<path d="M472.015 360.683L520.288 363.746C521.501 363.822 522.536 362.9 522.599 361.686L523.775 338.767L484.294 336.262C478.225 335.877 473.052 340.488 472.74 346.562L472.015 360.683Z" fill="#00E8A2" fill-opacity="0.16"/>
<path d="M549.541 394.34L470.544 389.328L471.759 365.672L550.756 370.684L549.541 394.34Z" fill="#00E8A2" fill-opacity="0.16"/>
<path d="M549.281 399.415L501.009 396.352C499.795 396.275 498.76 397.198 498.698 398.412L497.521 421.331L537.002 423.836C543.071 424.221 548.244 419.609 548.556 413.536L549.281 399.415Z" fill="#00E8A2" fill-opacity="0.16"/>
<path d="M338.736 236.463L387.008 239.526C388.222 239.603 389.257 238.681 389.319 237.466L390.496 214.547L351.015 212.042C344.945 211.657 339.773 216.268 339.461 222.342L338.736 236.463Z" fill="#00E8A2" fill-opacity="0.16"/>
<path d="M415.778 269.577L337.801 264.63L338.963 241.994L416.94 246.942L415.778 269.577Z" stroke="#00E8A2" stroke-opacity="0.16" stroke-width="1.02178"/>
<path d="M416.002 275.195L367.729 272.133C366.515 272.055 365.481 272.978 365.418 274.192L364.241 297.111L403.723 299.616C409.791 300.001 414.965 295.39 415.276 289.316L416.002 275.195Z" fill="#00E8A2" fill-opacity="0.16"/>
<path d="M361.788 386.014L409.551 389.045C410.483 389.103 411.278 388.395 411.326 387.462L412.476 365.054L373.505 362.581C367.717 362.214 362.785 366.612 362.488 372.403L361.788 386.014Z" stroke="#00E8A2" stroke-opacity="0.16" stroke-width="1.02178"/>
<path d="M438.778 420.148L359.781 415.137L360.996 391.481L439.993 396.493L438.778 420.148Z" fill="#00E8A2" fill-opacity="0.16"/>
<path d="M437.982 425.702L390.22 422.671C389.287 422.613 388.493 423.321 388.445 424.253L387.294 446.662L426.265 449.135C432.053 449.502 436.986 445.104 437.283 439.313L437.982 425.702Z" stroke="#00E8A2" stroke-opacity="0.16" stroke-width="1.02178"/>
<path d="M389.699 328.097L437.971 331.16C439.185 331.237 440.219 330.314 440.282 329.1L441.459 306.181L401.978 303.676C395.909 303.291 390.736 307.902 390.424 313.976L389.699 328.097Z" fill="#00E8A2" fill-opacity="0.16"/>
<path d="M466.741 361.211L388.763 356.264L389.926 333.628L467.903 338.575L466.741 361.211Z" stroke="#00E8A2" stroke-opacity="0.16" stroke-width="1.02178"/>
<path d="M466.965 366.828L418.692 363.766C417.478 363.689 416.444 364.611 416.381 365.826L415.204 388.745L454.686 391.25C460.755 391.635 465.928 387.023 466.239 380.95L466.965 366.828Z" fill="#00E8A2" fill-opacity="0.16"/>
<path d="M407.04 475.879L455.313 478.941C456.526 479.018 457.561 478.096 457.623 476.881L458.8 453.962L419.319 451.457C413.25 451.073 408.077 455.684 407.765 461.757L407.04 475.879Z" fill="#00E8A2" fill-opacity="0.16"/>
<path d="M484.082 508.992L406.104 504.045L407.267 481.41L485.244 486.357L484.082 508.992Z" stroke="#00E8A2" stroke-opacity="0.16" stroke-width="1.02178"/>
</svg>
