<svg width="66" height="66" viewBox="0 0 66 66" fill="none" xmlns="http://www.w3.org/2000/svg">
<rect x="5" y="5" width="56" height="56" rx="28" fill="#D1FADF"/>
<rect x="5" y="5" width="56" height="56" rx="28" stroke="#ECFDF3" stroke-width="10"/>
<path d="M44.6668 31.9262V32.9995C44.6654 35.5153 43.8507 37.9633 42.3444 39.9783C40.838 41.9933 38.7207 43.4674 36.3081 44.1807C33.8955 44.8941 31.317 44.8084 28.957 43.9365C26.5971 43.0647 24.5823 41.4533 23.2129 39.3428C21.8436 37.2322 21.1933 34.7356 21.3588 32.2252C21.5243 29.7148 22.4969 27.3252 24.1315 25.4128C25.7661 23.5003 27.9751 22.1675 30.429 21.613C32.883 21.0586 35.4505 21.3122 37.7485 22.3362M44.6668 23.6662L33.0002 35.3445L29.5002 31.8445" stroke="#039855" stroke-width="2.33333" stroke-linecap="round" stroke-linejoin="round"/>
</svg>
